<svg width="24" height="22" viewBox="0 0 24 22" fill="none" xmlns="http://www.w3.org/2000/svg">
<path fill-rule="evenodd" clip-rule="evenodd" d="M14.6718 0.838333L23.3285 9.495C23.544 9.7123 23.6655 10.0056 23.6668 10.3117V11.5833C23.6668 11.9055 23.4057 12.1667 23.0835 12.1667H21.3335V20.3333C21.3335 20.9777 20.8112 21.5 20.1668 21.5H14.3335C13.6892 21.5 13.1668 20.9777 13.1668 20.3333V14.7917C13.1668 14.6306 13.0362 14.5 12.8752 14.5H11.1252C10.9641 14.5 10.8335 14.6306 10.8335 14.7917V20.3333C10.8335 20.9777 10.3112 21.5 9.66683 21.5H3.8335C3.18916 21.5 2.66683 20.9777 2.66683 20.3333V12.1667H0.916829C0.594663 12.1667 0.333496 11.9055 0.333496 11.5833V10.3117C0.334785 10.0056 0.456295 9.7123 0.671829 9.495L9.3285 0.838333C9.5458 0.622798 9.8391 0.501289 10.1452 0.5H13.8552C14.1612 0.501289 14.4545 0.622798 14.6718 0.838333ZM15.5002 19.1667H19.0002V8.46833L13.3652 2.83333H10.6352L5.00016 8.46833V19.1667H8.50016V13.3333C8.50016 12.689 9.0225 12.1667 9.66683 12.1667H14.3335C14.9778 12.1667 15.5002 12.689 15.5002 13.3333V19.1667Z" fill="white"/>
</svg>
